<svg width="800" height="595.28" xmlns="http://www.w3.org/2000/svg">
 <defs>
  <style>.cls-1{fill:#e52629;}.cls-2{fill:#e5262c;}.cls-3{fill:#faf6f4;}.cls-4{fill:#fdfcfb;}.cls-5{fill:#faebe7;}.cls-6{fill:#fefffd;}.cls-7{fill:url(#New_Gradient_Swatch_12);}.cls-8{fill:#e30613;}.cls-9{fill:#fff;}.cls-10{fill:#504841;}</style>
 </defs>
 <title>4 logo2</title>
 <g>
  <title>background</title>
  <rect fill="none" id="canvas_background" height="597.28" width="802" y="-1" x="-1"/>
 </g>
 <g>
  <title>Layer 1</title>
  <path id="svg_1" d="m418.199999,411.47c32.57,0 45.4,-12.84 45.4,-43.43l0,-98.2c0,-2.46 1,-3.45 3.45,-3.45l22,0.74l0,-17.77l-22,0.74c-2.46,0 -3.45,-1 -3.45,-3.46l0,-34c0,-17.77 10.36,-26.65 28.87,-26.65s28.87,8.88 28.87,26.65l0,103.09c0,30.6 12.82,43.43 45.39,43.43a110.93,110.93 0 0 0 13.82,-0.74l0,-16.53c-4.44,0.24 -9.62,0.49 -14.31,0.49c-20,0 -27.14,-6.66 -27.14,-28.13l0,-45.4c0,-2.47 1,-3.46 3.46,-3.46l29.86,1l0,-17l-29.86,1c-2.47,0 -3.46,-1 -3.46,-3.46l0,-36.31c0,-26.4 -16.78,-41.69 -46.63,-41.69s-46.59,15.29 -46.59,41.69l0,36c0,2.47 -1,3.46 -3.45,3.46l-14.31,-0.49l0,17.27l14.31,-0.49c2.46,0 3.45,1 3.45,3.45l0,96.72c0,21.47 -7.15,28.13 -27.14,28.13c-4.69,0 -9.87,-0.25 -14.31,-0.49l0,16.53a111.65,111.65 0 0 0 13.81,0.75l-0.04,0.01zm-324.65,-121.41l67.11,0c25.17,0 39.23,-16.78 39.23,-39.48l0,-44.65c0,-22.7 -14.07,-39.47 -39.23,-39.47l-67.11,0l0,17l20,-0.74c2.47,0 3.45,1 3.45,3.45l0,84.14c0,2.46 -1,3.46 -3.45,3.46l-20,-0.74l0,17.03zm179.13,67.11c20.72,0 38.73,-9.37 46.63,-23.69l-11.84,-9.62c-7.65,10.61 -17.76,16.78 -34.3,16.78c-22.7,0 -32.57,-17.76 -33.06,-39.48l81.42,0l0,-7.4c0,-33.81 -16,-61.69 -49.84,-61.69s-49.84,27.88 -49.84,61.69s14.06,63.41 50.83,63.41zm-134.47,-83.89c-2.47,0 -3.46,-1 -3.46,-3.46l0,-83.13c0,-2.47 1,-3.46 3.46,-3.46l21,0c15.3,0 22.95,9.62 22.95,24.18l0,41.7c0,14.56 -7.65,24.18 -22.95,24.18l-21,-0.01zm-37.5,138.91l77.17,-34.78l20.23,-7.89l-7.9,-17.52l-77.22,34.79l-20.23,7.9l7.95,17.5zm0,-52.06l77.17,-34.78l20.23,-7.89l-7.9,-17.52l-77.22,34.79l-20.23,7.89l7.95,17.51zm171,-111.28c20,0 30.1,15.79 31.09,36l-62.67,0c1.16,-20.19 11.53,-35.99 31.51,-35.99l0.07,-0.01z"/>
  <path id="svg_2" d="m368.599999,333c0,2.47 -1,3.46 -3.46,3.46l-31.09,-1.24l0,17.27l86.83,0l0,-17.27l-31.09,1.24c-2.47,0 -3.46,-1 -3.46,-3.46l0,-156.67l-50.33,0l0,16.53l29.12,-1.23c2.47,0 3.45,1 3.45,3.45l0.03,137.92z"/>
  <path id="svg_3" d="m248.049999,492.76a13.4,13.4 0 0 1 -18.42,0c-3.71,-3.61 -4.29,-8.63 -4.29,-14.07s0.58,-10.46 4.29,-14.08a13.21,13.21 0 0 1 9.26,-3.66a13,13 0 0 1 9.11,3.52a11.68,11.68 0 0 1 3.37,7.81l-4.44,0a7.45,7.45 0 0 0 -1.88,-4.78a8.3,8.3 0 0 0 -6.17,-2.5a8.69,8.69 0 0 0 -6.22,2.6c-2.79,2.89 -2.89,7.52 -2.89,11.09s0.1,8.2 2.89,11.09a8.67,8.67 0 0 0 6.22,2.6a8.44,8.44 0 0 0 6.22,-2.6a7.83,7.83 0 0 0 1.88,-4.91l4.43,0a11.89,11.89 0 0 1 -3.36,7.89z"/>
  <path id="svg_4" d="m282.879999,495.75l-6.46,-14.22l-9.45,0l0,14.22l-4.29,0l0,-34.18l13.4,0c4,0 6.8,1.1 8.68,3a9.69,9.69 0 0 1 2.7,6.95a9.13,9.13 0 0 1 -2.61,6.74a9.76,9.76 0 0 1 -4.1,2.41l6.84,15l-4.71,0.08zm-2.09,-30.31l-9.11,0l0,12l9.11,0c4.05,0 6.94,-1.63 6.94,-6s-7.57,-5.91 -11.62,-5.91l4.68,-0.09z"/>
  <path id="svg_5" d="m299.289999,495.75l0,-34.18l22.86,0l0,4l-18.57,0l0,10.41l16.3,0l0,4.02l-16.3,0l0,11.8l18.56,0l0,4l-22.85,-0.05z"/>
  <path id="svg_6" d="m354.099999,495.75l-2.8,-8.1l-14.85,0l-2.75,8.1l-4.34,0l12.05,-34.18l5,0l12.1,34.18l-4.41,0zm-10.22,-29.89l-6,17.74l12,0l-6,-17.74z"/>
  <path id="svg_7" d="m375.939999,465.57l0,30.18l-4.34,0l0,-30.18l-10.17,0l0,-4l24.68,0l0,4l-10.17,0z"/>
  <path id="svg_8" d="m396.379999,495.75l0,-34.18l4.39,0l0,34.18l-4.39,0z"/>
  <path id="svg_9" d="m436.149999,495.75l-16.78,-27.48l0,27.48l-4.14,0l0,-34.18l4.82,0l16.83,27.58l0,-27.58l4.14,0l0,34.18l-4.87,0z"/>
  <path id="svg_10" d="m476.879999,495.75l-0.72,-4.1c-1.69,2.8 -5.45,4.77 -9.3,4.77a13,13 0 0 1 -9.21,-3.52c-3.48,-3.38 -4.44,-8.1 -4.44,-14.22c0,-5.45 0.73,-10.46 4.44,-14.08a13.08,13.08 0 0 1 9.21,-3.66a13.33,13.33 0 0 1 9.79,3.86a10.22,10.22 0 0 1 2.94,6.65l-4.48,0a6.48,6.48 0 0 0 -1.54,-3.76a8.43,8.43 0 0 0 -6.7,-2.69a8.69,8.69 0 0 0 -6.22,2.6c-2.79,2.89 -3,7.52 -3,11.09c0,3.42 0.24,8.34 3.08,11.23a8.34,8.34 0 0 0 6.12,2.46a8.75,8.75 0 0 0 6.22,-2.36c2.26,-2.21 2.94,-5.54 2.94,-8.68l-9.16,0l0,-4l13,0l0,18.42l-2.97,-0.01z"/>
  <path id="svg_11" d="m531.519999,495.75l0,-15.75l-16.39,0l0,15.76l-4.25,0l0,-34.19l4.29,0l0,14.27l16.39,0l0,-14.27l4.29,0l0,34.18l-4.33,0z"/>
  <path id="svg_12" d="m550.269999,495.75l0,-34.18l4.39,0l0,34.18l-4.39,0z"/>
  <path id="svg_13" d="m589.609999,493c-2.36,2.32 -6,3.42 -9.69,3.42c-4.15,0 -7.47,-1.16 -9.79,-3.27a11.34,11.34 0 0 1 -3.66,-8.2l4.48,0a7.8,7.8 0 0 0 2.41,5.4c1.55,1.49 4.15,2.12 6.56,2.12c2.6,0 4.82,-0.53 6.36,-2a5,5 0 0 0 1.74,-4c0,-2.65 -1.69,-4.87 -5.74,-5.5c-1.88,-0.29 -3.57,-0.53 -5.4,-0.82c-5.11,-0.77 -9.11,-3.61 -9.11,-9.06a9.43,9.43 0 0 1 3,-6.75a12.7,12.7 0 0 1 9,-3.37a12.85,12.85 0 0 1 8.87,3.27a10.28,10.28 0 0 1 3.28,7.33l-4.49,0a7.13,7.13 0 0 0 -1.68,-4.3a8.94,8.94 0 0 0 -12.1,0a5.42,5.42 0 0 0 -1.4,3.72c0,3.08 2.55,4.48 5.11,4.82c1.93,0.24 3.81,0.58 5.69,0.86c5.69,0.82 9.5,4.29 9.5,9.69a8.9,8.9 0 0 1 -2.94,6.64z"/>
  <path id="svg_14" d="m613.879999,465.57l0,30.18l-4.34,0l0,-30.18l-10.17,0l0,-4l24.68,0l0,4l-10.17,0z"/>
  <path id="svg_15" d="m653.679999,492.76a13.39,13.39 0 0 1 -18.41,0c-3.71,-3.61 -4.39,-8.63 -4.39,-14.07s0.67,-10.46 4.39,-14.08a13.4,13.4 0 0 1 18.41,0c3.71,3.62 4.39,8.63 4.39,14.08s-0.68,10.46 -4.39,14.07zm-3,-25.16a8.84,8.84 0 0 0 -12.44,0c-2.8,2.89 -2.94,7.52 -2.94,11.09s0.15,8.2 2.94,11.09a8.84,8.84 0 0 0 12.44,0c2.8,-2.89 2.94,-7.52 2.94,-11.09s-0.13,-8.2 -2.93,-11.09l-0.01,0z"/>
  <path id="svg_16" d="m689.259999,495.75l-6.46,-14.22l-9.45,0l0,14.22l-4.29,0l0,-34.18l13.41,0c4,0 6.8,1.1 8.68,3a9.69,9.69 0 0 1 2.7,6.95a9.14,9.14 0 0 1 -2.6,6.74a9.78,9.78 0 0 1 -4.1,2.41l6.85,15l-4.74,0.08zm-2.06,-30.31l-9.11,0l0,12l9.11,0c4,0 6.94,-1.63 6.94,-6s-7.63,-5.91 -11.68,-5.91l4.74,-0.09z"/>
  <path id="svg_17" d="m715.819999,481.87l0,13.88l-4.34,0l0,-13.88l-11.48,-20.3l4.82,0l9,16.25l8.92,-16.25l4.58,0l-11.5,20.3z"/>
 </g>
</svg>