<?xml version="1.0" encoding="UTF-8" standalone="no"?>
<svg
   xmlns:dc="http://purl.org/dc/elements/1.1/"
   xmlns:cc="http://creativecommons.org/ns#"
   xmlns:rdf="http://www.w3.org/1999/02/22-rdf-syntax-ns#"
   xmlns:svg="http://www.w3.org/2000/svg"
   xmlns="http://www.w3.org/2000/svg"
   viewBox="0 0 218.49333 148.81332"
   height="148.81332"
   width="218.49333"
   xml:space="preserve"
   id="svg2"
   version="1.1"><metadata
     id="metadata8"><rdf:RDF><cc:Work
         rdf:about=""><dc:format>image/svg+xml</dc:format><dc:type
           rdf:resource="http://purl.org/dc/dcmitype/StillImage" /></cc:Work></rdf:RDF></metadata><defs
     id="defs6" /><g
     transform="matrix(1.3333333,0,0,-1.3333333,0,148.81333)"
     id="g10"><g
       transform="scale(0.1)"
       id="g12"><path
         id="path14"
         style="fill:#231f20;fill-opacity:1;fill-rule:nonzero;stroke:none"
         d="m 550.742,717.273 c 38.684,0 58.274,-30.578 60.18,-69.746 h -121.32 c 2.378,39.168 22.445,69.746 61.14,69.746 z m -331.023,-215.429 149.511,67.351 39.165,15.274 -15.29,33.926 -149.5,-67.352 -39.171,-15.285 z m 0,-100.793 149.511,67.355 39.165,15.282 -15.29,33.925 -149.5,-67.351 -39.171,-15.293 z m 72.605,268.926 c -4.773,0 -6.687,1.914 -6.687,6.699 v 160.957 c 0,4.785 1.914,6.699 6.687,6.699 h 40.598 c 29.617,0 44.422,-18.633 44.422,-46.816 v -80.723 c 0,-28.184 -14.805,-46.816 -44.422,-46.816 z M 552.656,507.574 c 40.121,0 74.989,18.145 90.274,45.86 L 620,572.059 c -14.809,-20.539 -34.391,-32.481 -66.395,-32.481 -43.941,0 -63.058,34.383 -64.003,76.426 H 647.23 v 14.324 c 0,65.449 -31.046,119.426 -96.488,119.426 -65.437,0 -96.488,-53.977 -96.488,-119.426 0,-65.43 27.226,-122.754 98.402,-122.754 z M 205.867,637.496 h 129.918 c 48.723,0 75.953,32.481 75.953,76.438 v 86.453 c 0,43.945 -27.23,76.418 -75.953,76.418 H 205.867 v -32.961 l 38.696,1.437 c 4.773,0 6.675,-1.906 6.675,-6.679 V 675.711 c 0,-4.766 -1.902,-6.691 -6.675,-6.691 l -38.696,1.437 z M 834.469,402.477 c 63.051,0 87.894,24.863 87.894,84.082 v 190.117 c 0,4.765 1.914,6.679 6.684,6.679 l 42.516,-1.433 v 34.383 l -42.516,-1.426 c -4.77,0 -6.684,1.914 -6.684,6.691 v 65.918 c 0,34.395 20.059,51.59 55.891,51.59 35.826,0 55.886,-17.195 55.886,-51.59 v -199.66 c 0,-59.238 24.83,-84.07 87.88,-84.07 11.47,0 18.17,0.469 26.76,1.426 v 32 c -8.59,-0.469 -18.63,-0.946 -27.71,-0.946 -38.69,0 -52.54,12.899 -52.54,54.453 v 87.891 c 0,4.773 1.91,6.688 6.68,6.688 l 57.81,-1.915 v 32.95 l -57.81,-1.903 c -4.77,0 -6.68,1.903 -6.68,6.688 v 70.226 c 0,51.102 -32.49,80.711 -90.276,80.711 -57.805,0 -90.285,-29.609 -90.285,-80.711 V 721.57 c 0,-4.777 -1.914,-6.691 -6.684,-6.691 l -27.707,0.957 v -33.438 l 27.707,0.957 c 4.77,0 6.684,-1.914 6.684,-6.679 V 489.43 c 0,-41.563 -13.848,-54.461 -52.539,-54.461 -9.075,0 -19.106,0.476 -27.703,0.957 v -32.004 c 8.597,-0.945 15.277,-1.445 26.742,-1.445 v 0" /><path
         id="path16"
         style="fill:#231f20;fill-opacity:1;fill-rule:nonzero;stroke:none"
         d="m 738.457,554.391 c 0,-4.786 -1.914,-6.7 -6.687,-6.7 l -60.188,2.395 v -33.43 h 168.145 v 33.43 l -60.184,-2.395 c -4.777,0 -6.691,1.914 -6.691,6.7 V 857.703 H 675.41 v -32.004 l 56.367,2.383 c 4.778,0 6.68,-1.902 6.68,-6.68 V 554.391" /><path
         id="path18"
         style="fill:#231f20;fill-opacity:1;fill-rule:nonzero;stroke:none"
         d="m 505.066,245.094 c -4.011,-4.024 -10.546,-7.098 -17.73,-7.098 -6.629,0 -13.16,2.43 -17.922,7.098 -7.187,6.992 -8.305,16.699 -8.305,27.246 0,10.547 1.118,20.254 8.305,27.258 4.762,4.668 11.293,7.09 17.922,7.09 7.184,0 13.633,-2.805 17.641,-6.809 3.824,-3.926 6.253,-8.965 6.531,-15.125 h -8.586 c -0.09,3.641 -1.492,6.805 -3.637,9.246 -2.613,2.891 -6.914,4.844 -11.949,4.844 -4.481,0 -8.867,-1.778 -12.043,-5.039 -5.41,-5.594 -5.598,-14.551 -5.598,-21.465 0,-6.902 0.188,-15.867 5.598,-21.465 3.176,-3.27 7.562,-5.039 12.043,-5.039 5.035,0 9.426,2.141 12.039,5.039 2.148,2.422 3.547,5.879 3.645,9.512 h 8.582 c -0.278,-6.153 -2.707,-11.375 -6.536,-15.293" /><path
         id="path20"
         style="fill:#231f20;fill-opacity:1;fill-rule:nonzero;stroke:none"
         d="m 559.379,297.82 h -17.637 v -23.234 h 17.637 c 7.848,0 13.441,3.164 13.441,11.562 0,8.411 -5.593,11.672 -13.441,11.672 z m 13.16,-58.515 -12.5,27.527 h -18.297 v -27.527 h -8.304 v 66.172 h 25.941 c 7.75,0 13.16,-2.141 16.805,-5.879 3.171,-3.371 5.226,-7.657 5.226,-13.45 0,-5.781 -1.867,-9.707 -5.043,-13.054 -1.957,-2.063 -4.762,-3.653 -7.929,-4.668 l 13.25,-29.121 h -9.149" /><path
         id="path22"
         style="fill:#231f20;fill-opacity:1;fill-rule:nonzero;stroke:none"
         d="m 604.27,239.305 v 66.172 h 44.246 v -7.657 h -35.938 v -20.156 h 31.543 v -7.844 h -31.543 v -22.859 h 35.938 v -7.656 H 604.27" /><path
         id="path24"
         style="fill:#231f20;fill-opacity:1;fill-rule:nonzero;stroke:none"
         d="M 690.496,297.164 678.84,262.82 h 23.418 z m 19.887,-57.859 -5.418,15.672 h -28.742 l -5.325,-15.672 H 662.5 l 23.336,66.172 h 9.707 l 23.422,-66.172 h -8.582" /><path
         id="path26"
         style="fill:#231f20;fill-opacity:1;fill-rule:nonzero;stroke:none"
         d="m 752.668,297.73 v -58.425 h -8.398 v 58.425 h -19.7 v 7.747 h 47.789 v -7.747 h -19.691" /><path
         id="path28"
         style="fill:#231f20;fill-opacity:1;fill-rule:nonzero;stroke:none"
         d="m 792.234,239.305 v 66.172 h 8.496 v -66.172 h -8.496" /><path
         id="path30"
         style="fill:#231f20;fill-opacity:1;fill-rule:nonzero;stroke:none"
         d="m 869.234,239.305 -32.48,53.203 v -53.203 h -8.024 v 66.172 h 9.333 l 32.48,-53.391 v 53.391 h 8.02 v -66.172 h -9.329" /><path
         id="path32"
         style="fill:#231f20;fill-opacity:1;fill-rule:nonzero;stroke:none"
         d="m 948.008,239.305 -1.403,7.929 c -3.265,-5.421 -10.542,-9.238 -18.011,-9.238 -6.629,0 -13.067,2.149 -17.824,6.805 -6.727,6.543 -8.59,15.683 -8.59,27.539 0,10.547 1.406,20.254 8.59,27.258 4.757,4.668 11.195,7.09 17.824,7.09 7.469,0 14.375,-2.618 18.945,-7.473 3.176,-3.36 5.422,-7.547 5.691,-12.871 h -8.679 c -0.274,3.078 -1.297,5.215 -2.985,7.285 -2.98,3.535 -7.562,5.215 -12.972,5.215 -4.485,0 -8.867,-1.778 -12.039,-5.039 -5.41,-5.594 -5.785,-14.551 -5.785,-21.465 0,-6.621 0.46,-16.152 5.968,-21.746 3.172,-3.262 7.371,-4.758 11.856,-4.758 4.668,0 9.051,1.582 12.043,4.57 4.383,4.289 5.691,10.735 5.691,16.809 h -17.734 v 7.742 h 25.199 v -35.652 h -5.785" /><path
         id="path34"
         style="fill:#231f20;fill-opacity:1;fill-rule:nonzero;stroke:none"
         d="m 1053.87,239.305 v 30.515 h -31.73 v -30.515 h -8.31 v 66.172 h 8.31 v -27.629 h 31.73 v 27.629 h 8.31 v -66.172 h -8.31" /><path
         id="path36"
         style="fill:#231f20;fill-opacity:1;fill-rule:nonzero;stroke:none"
         d="m 1090.17,239.305 v 66.172 h 8.49 v -66.172 h -8.49" /><path
         id="path38"
         style="fill:#231f20;fill-opacity:1;fill-rule:nonzero;stroke:none"
         d="m 1166.33,244.715 c -4.57,-4.485 -11.67,-6.621 -18.76,-6.621 -8.03,0 -14.46,2.234 -18.95,6.336 -4.2,3.925 -7.09,9.621 -7.09,15.871 h 8.68 c 0,-3.918 1.96,-7.844 4.66,-10.449 3,-2.891 8.04,-4.114 12.7,-4.114 5.04,0 9.33,1.028 12.32,3.828 2.05,1.868 3.36,4.2 3.36,7.747 0,5.125 -3.26,9.421 -11.1,10.644 -3.65,0.555 -6.91,1.023 -10.46,1.59 -9.89,1.484 -17.63,6.992 -17.63,17.539 0,4.941 2.23,9.707 5.77,13.066 4.58,4.297 10.46,6.536 17.37,6.536 6.44,0 12.79,-2.141 17.17,-6.34 4.02,-3.828 6.16,-8.594 6.35,-14.2 h -8.68 c -0.18,3.274 -1.4,6.165 -3.27,8.321 -2.52,2.883 -6.53,4.562 -11.66,4.562 -4.76,0 -8.87,-1.301 -11.76,-4.562 -1.69,-1.961 -2.71,-4.207 -2.71,-7.196 0,-5.968 4.94,-8.683 9.89,-9.335 3.74,-0.461 7.37,-1.125 11.01,-1.672 11.02,-1.59 18.39,-8.309 18.39,-18.758 0,-5.508 -2.33,-9.621 -5.6,-12.793" /><path
         id="path40"
         style="fill:#231f20;fill-opacity:1;fill-rule:nonzero;stroke:none"
         d="m 1213.37,297.73 v -58.425 h -8.4 v 58.425 h -19.7 v 7.747 h 47.79 v -7.747 h -19.69" /><path
         id="path42"
         style="fill:#231f20;fill-opacity:1;fill-rule:nonzero;stroke:none"
         d="m 1284.58,293.805 c -3.18,3.261 -7.57,4.953 -12.05,4.953 -4.48,0 -8.86,-1.692 -12.04,-4.953 -5.41,-5.594 -5.7,-14.551 -5.7,-21.465 0,-6.902 0.29,-15.867 5.7,-21.465 3.18,-3.27 7.56,-4.949 12.04,-4.949 4.48,0 8.87,1.679 12.05,4.949 5.41,5.598 5.68,14.563 5.68,21.465 0,6.914 -0.27,15.871 -5.68,21.465 z m 5.77,-48.711 c -4.75,-4.668 -11.19,-7.098 -17.82,-7.098 -6.62,0 -13.07,2.43 -17.82,7.098 -7.2,6.992 -8.5,16.699 -8.5,27.246 0,10.547 1.3,20.254 8.5,27.258 4.75,4.668 11.2,7.09 17.82,7.09 6.63,0 13.07,-2.422 17.82,-7.09 7.19,-7.004 8.5,-16.711 8.5,-27.258 0,-10.547 -1.31,-20.254 -8.5,-27.246" /><path
         id="path44"
         style="fill:#231f20;fill-opacity:1;fill-rule:nonzero;stroke:none"
         d="m 1346.08,297.82 h -17.63 v -23.234 h 17.63 c 7.84,0 13.44,3.164 13.44,11.562 0,8.411 -5.6,11.672 -13.44,11.672 z m 13.16,-58.515 -12.5,27.527 h -18.29 v -27.527 h -8.32 v 66.172 h 25.95 c 7.75,0 13.16,-2.141 16.8,-5.879 3.17,-3.371 5.23,-7.657 5.23,-13.45 0,-5.781 -1.87,-9.707 -5.04,-13.054 -1.96,-2.063 -4.77,-3.653 -7.94,-4.668 l 13.25,-29.121 h -9.14" /><path
         id="path46"
         style="fill:#231f20;fill-opacity:1;fill-rule:nonzero;stroke:none"
         d="m 1410.66,266.18 v -26.875 h -8.4 v 26.875 l -22.22,39.297 h 9.34 l 17.36,-31.457 17.26,31.457 h 8.87 l -22.21,-39.297" /></g></g></svg>