<?xml version="1.0" encoding="UTF-8" standalone="no"?>
<svg
   xmlns:dc="http://purl.org/dc/elements/1.1/"
   xmlns:cc="http://creativecommons.org/ns#"
   xmlns:rdf="http://www.w3.org/1999/02/22-rdf-syntax-ns#"
   xmlns:svg="http://www.w3.org/2000/svg"
   xmlns="http://www.w3.org/2000/svg"
   viewBox="0 0 165.82668 102.04"
   height="102.04"
   width="165.82668"
   xml:space="preserve"
   id="svg2"
   version="1.1"><metadata
     id="metadata8"><rdf:RDF><cc:Work
         rdf:about=""><dc:format>image/svg+xml</dc:format><dc:type
           rdf:resource="http://purl.org/dc/dcmitype/StillImage" /></cc:Work></rdf:RDF></metadata><defs
     id="defs6" /><g
     transform="matrix(1.3333333,0,0,-1.3333333,0,102.04)"
     id="g10"><g
       transform="scale(0.1)"
       id="g12"><path
         id="path14"
         style="fill:#3db9ed;fill-opacity:1;fill-rule:nonzero;stroke:none"
         d="m 383.852,320.156 c 24.921,0 38.457,16.555 38.457,39.766 V 478.34 h 53.007 V 357.273 c -0.527,-53.289 -43.211,-74.218 -91.464,-74.218 -48.25,0 -90.938,20.929 -91.465,74.218 V 478.34 h 53.008 V 359.922 c 0,-23.211 13.535,-39.766 38.457,-39.766" /><path
         id="path16"
         style="fill:#050301;fill-opacity:1;fill-rule:nonzero;stroke:none"
         d="m 155.055,287.004 h 53.008 v 154.207 h 59.382 v 37.117 H 95.668 v -37.117 h 59.387 V 287.004" /><path
         id="path18"
         style="fill:#050301;fill-opacity:1;fill-rule:nonzero;stroke:none"
         d="m 282.387,571.504 c -12.93,-4.059 -26.27,-0.813 -26.231,16.484 0.02,26.36 61.926,48.457 70.508,71.492 2.129,5.743 2.258,10.473 -0.488,10.325 -1.973,-0.117 -0.43,-2.977 -4.766,-7.325 -25.644,-25.656 -68.613,-25.617 -101.582,-40.382 -21.621,-9.707 -84.98,-39.52 -70.39,-106.024 0.695,-3.152 2.578,-13.738 4.511,-13.738 2.246,0 2.227,6.285 2.168,13.926 -0.488,39.597 46.406,50.64 61.66,76.511 1.828,3.094 4.981,7.43 5.735,5.418 0.359,-0.972 0.125,-2.41 -0.489,-5.164 -4.777,-21.261 -27.011,-34.902 -20.714,-50.097 8.164,-19.727 31.738,-5.02 38.976,7.656 1.942,3.496 3.028,5.723 4.324,5.273 0.977,-0.343 0.938,-4.347 0.332,-7.949 -3.867,-22.883 -9.128,-35.73 -25.878,-48.75 -5.352,-4.172 -13.778,-5.039 -12.676,-8.242 0.285,-0.828 3.918,-0.742 6.808,-0.449 44.59,2.851 81.883,55.429 91.766,89.773 1.035,2.414 1.348,4.688 0.254,5.539 -1.348,1.035 -3.301,-1.347 -5.293,-3.113 -5.098,-4.477 -12.086,-9.145 -18.535,-11.164" /><path
         id="path20"
         style="fill:#050301;fill-opacity:1;fill-rule:nonzero;stroke:none"
         d="m 829.195,348.762 v 12.468 c 0,36.836 -20.863,62.833 -58.605,62.833 -42.137,0 -61.766,-32.618 -61.766,-71.583 0,-39.238 16.981,-69.453 59.656,-69.453 31.817,0 55.137,15.098 59.122,45.321 h -26.504 c -2.93,-19.344 -12.723,-27.032 -32.344,-27.032 -25.731,0 -34.266,22.895 -34.266,47.446 z m -94.14,17.5 c 0.179,20.754 12.742,39.5 33.699,39.5 24.375,0 33.906,-16.703 33.906,-39.5 h -67.605" /><path
         id="path22"
         style="fill:#050301;fill-opacity:1;fill-rule:nonzero;stroke:none"
         d="m 859.73,286.992 h 25.2031 V 478.34 H 859.73 Z" /><path
         id="path24"
         style="fill:#050301;fill-opacity:1;fill-rule:nonzero;stroke:none"
         d="m 963.883,287.004 v 115.508 h 30.722 v 17.515 h -30.722 v 21.485 c 0,15.383 7.402,18.019 21.738,18.019 4.219,0 8.477,-0.547 12.715,-0.781 v 20.906 c -5.898,1.34 -11.914,2.657 -18.027,2.657 -23.848,0 -41.621,-11.954 -41.621,-37.422 V 420.027 H 912.73 v -17.515 h 25.958 V 287.004 h 25.195" /><path
         id="path26"
         style="fill:#050301;fill-opacity:1;fill-rule:nonzero;stroke:none"
         d="m 1009.08,420.027 v -17.515 h 22.8 v -84.778 c 0,-17.695 0.25,-34.699 37.66,-34.699 5.82,0 11.29,0.551 17.23,1.574 v 19.344 c -4.1,-0.984 -9.28,-1.582 -13.27,-1.582 -9.01,0 -16.42,4.531 -16.42,14.035 v 86.106 h 30.74 v 17.515 h -30.74 v 36.313 l -25.2,-7.949 v -28.379 l -22.8,0.015" /><path
         id="path28"
         style="fill:#050301;fill-opacity:1;fill-rule:nonzero;stroke:none"
         d="m 554.875,455.563 h 39.191 c 44.231,0 62.579,-33.372 62.579,-72.907 0,-39.531 -18.348,-72.871 -62.579,-72.871 H 554.875 Z M 528.324,287.004 h 65.735 c 81.836,0 90.425,69.266 90.425,95.652 0,26.391 -8.589,95.684 -90.425,95.684 H 528.324 V 287.004" /></g></g></svg>